<svg width="24" height="24" viewBox="0 0 24 24" fill="none" xmlns="http://www.w3.org/2000/svg">
<style>
path { fill: #111; }
@media (prefers-color-scheme: dark) {
path { fill: #f4f4f4; }
}
</style>
<path d="M20.9448 19.446C20.615 19.446 20.3512 19.3381 20.1533 19.1223C19.9665 18.9065 19.873 18.6067 19.873 18.223V9.73381C19.873 8.72662 19.6147 7.94125 19.0981 7.3777C18.5925 6.80216 17.889 6.51439 16.9876 6.51439C16.5809 6.51439 16.2072 6.57434 15.8664 6.69424C15.5367 6.81415 15.2509 6.98801 15.0091 7.21583C14.7782 7.43166 14.5969 7.70144 14.465 8.02518C14.3331 8.33693 14.2671 8.69065 14.2671 9.08633C14.2671 9.6259 14.3935 10.0935 14.6463 10.4892C14.9101 10.8729 15.2564 11.1487 15.6851 11.3165V10.3813C15.6851 10.0336 15.7785 9.7458 15.9654 9.51799C16.1632 9.29017 16.4215 9.17626 16.7403 9.17626C17.0591 9.17626 17.3119 9.29017 17.4988 9.51799C17.6966 9.7458 17.7955 10.0336 17.7955 10.3813V17.7014C17.7955 18.229 17.6581 18.6367 17.3833 18.9245C17.1085 19.2122 16.7293 19.3561 16.2457 19.3561H10.8211C10.4144 19.3561 10.0901 19.2422 9.84831 19.0144C9.60649 18.7746 9.48557 18.4628 9.48557 18.0791C9.48557 17.8153 9.52405 17.5875 9.60099 17.3957C9.68893 17.1918 9.79335 16.946 9.91426 16.6583C10.0242 16.3825 10.1176 16.0707 10.1946 15.723C10.2715 15.3633 10.31 14.9436 10.31 14.464C10.31 13.9724 10.233 13.5228 10.0791 13.1151C9.93625 12.7074 9.7274 12.3597 9.4526 12.0719C9.18879 11.7842 8.85903 11.5623 8.46331 11.4065C8.07859 11.2506 7.6499 11.1727 7.17725 11.1727C6.25392 11.1727 5.51195 11.4484 4.95136 12C4.39077 12.5396 4.03902 13.283 3.89613 14.2302C4.10497 13.9185 4.37977 13.6607 4.72053 13.4568C5.07227 13.253 5.47348 13.1511 5.92416 13.1511C6.33086 13.1511 6.69909 13.229 7.02885 13.3849C7.35861 13.5288 7.63891 13.7446 7.86974 14.0324C8.10058 14.3082 8.27645 14.6439 8.39736 15.0396C8.52927 15.4233 8.59522 15.8489 8.59522 16.3165C8.59522 16.7722 8.52377 17.1978 8.38087 17.5935C8.24897 17.9772 8.05111 18.3129 7.7873 18.6007C7.5235 18.8765 7.19923 19.0983 6.81451 19.2662C6.44078 19.4221 6.01759 19.5 5.54493 19.5C4.97334 19.5 4.46771 19.3921 4.02803 19.1763C3.58835 18.9484 3.21462 18.6367 2.90684 18.241C2.61006 17.8453 2.38472 17.3717 2.23083 16.8201C2.07694 16.2566 2 15.6391 2 14.9676C2 14.0923 2.12641 13.301 2.37923 12.5935C2.64303 11.8741 3.01127 11.2626 3.48392 10.759C3.96757 10.2434 4.53916 9.84772 5.19868 9.57194C5.8582 9.29616 6.59467 9.15827 7.40808 9.15827C8.17752 9.15827 8.87551 9.28417 9.50206 9.53597C10.1286 9.77578 10.6617 10.1175 11.1014 10.5612C11.5521 10.9928 11.8983 11.5204 12.1401 12.1439C12.382 12.7554 12.5029 13.4329 12.5029 14.1763C12.5029 14.7998 12.4369 15.3873 12.305 15.9388C12.1841 16.4904 12.0027 16.994 11.7609 17.4496H15.6521V13.223C15.1575 13.1511 14.6958 13.0012 14.2671 12.7734C13.8384 12.5456 13.4647 12.2518 13.1459 11.8921C12.8381 11.5324 12.5963 11.1127 12.4204 10.6331C12.2446 10.1415 12.1566 9.60192 12.1566 9.01439C12.1566 8.35492 12.2721 7.7494 12.5029 7.19784C12.7337 6.64628 13.058 6.17266 13.4757 5.77698C13.9044 5.3693 14.4155 5.05755 15.0091 4.84173C15.6026 4.61391 16.2622 4.5 16.9876 4.5C17.7681 4.5 18.4661 4.6259 19.0816 4.8777C19.7082 5.11751 20.2358 5.46523 20.6645 5.92086C21.0932 6.36451 21.4229 6.90408 21.6538 7.53957C21.8846 8.17506 22 8.88849 22 9.67986V18.223C22 18.6067 21.9011 18.9065 21.7032 19.1223C21.5164 19.3381 21.2635 19.446 20.9448 19.446ZM5.39654 14.8777C5.07777 14.8777 4.79747 14.9856 4.55565 15.2014C4.32481 15.4053 4.15444 15.6631 4.04452 15.9748C4.07749 16.5144 4.21489 16.94 4.45672 17.2518C4.70954 17.5635 5.0393 17.7194 5.446 17.7194C5.79775 17.7194 6.07255 17.5875 6.2704 17.3237C6.47925 17.06 6.58368 16.7302 6.58368 16.3345C6.58368 15.9029 6.47925 15.5552 6.2704 15.2914C6.06156 15.0156 5.77027 14.8777 5.39654 14.8777Z"/>
</svg>
