<svg width="94" height="20" viewBox="0 0 113 18" fill="currentColor" xmlns="http://www.w3.org/2000/svg">
<path d="M4.60208 14.8806C3.87159 14.8806 3.22145 14.7491 2.65167 14.4862C2.08189 14.2232 1.59977 13.8506 1.20531 13.3685C0.810842 12.8864 0.511342 12.3093 0.306805 11.6372C0.102268 10.9652 0 10.2201 0 9.40195C0 8.33544 0.168012 7.3712 0.504037 6.50922C0.854671 5.64724 1.33679 4.90945 1.9504 4.29584C2.57862 3.68223 3.32372 3.21472 4.1857 2.8933C5.04767 2.55728 6.00461 2.38927 7.05652 2.38927C8.06459 2.38927 8.9777 2.53536 9.79585 2.82756C10.6286 3.11976 11.3299 3.53613 11.8997 4.0767C12.484 4.60265 12.9369 5.23817 13.2584 5.98327C13.5798 6.72837 13.7405 7.55382 13.7405 8.45962C13.7405 9.24855 13.6455 9.98634 13.4556 10.673C13.2657 11.3597 12.9954 11.9952 12.6448 12.5796H16.4798V3.81372C16.4798 3.43387 16.5894 3.11976 16.8085 2.87139C17.0423 2.60841 17.3491 2.47693 17.729 2.47693C18.1088 2.47693 18.4156 2.60841 18.6494 2.87139C18.8831 3.11976 19 3.43387 19 3.81372V12.8864C19 13.4562 18.832 13.9018 18.496 14.2232C18.1599 14.5446 17.6997 14.7053 17.1153 14.7053H11.5271C11.045 14.7053 10.6578 14.5811 10.3656 14.3327C10.088 14.0844 9.94925 13.7484 9.94925 13.3247C9.94925 13.0325 10.0004 12.7695 10.1027 12.5357C10.2049 12.302 10.3364 12.0098 10.4971 11.6592C10.6578 11.3231 10.8039 10.9141 10.9354 10.4319C11.0669 9.94982 11.1326 9.38734 11.1326 8.74452C11.1326 8.1163 11.0304 7.55382 10.8258 7.05709C10.6213 6.54575 10.3291 6.10745 9.94925 5.74221C9.58401 5.37696 9.1311 5.09938 8.59054 4.90945C8.06459 4.70491 7.4729 4.60265 6.81546 4.60265C6.17263 4.60265 5.58824 4.69761 5.06228 4.88754C4.53633 5.07746 4.07612 5.35505 3.68166 5.72029C3.2872 6.07093 2.96578 6.49461 2.71742 6.99134C2.46905 7.48808 2.30834 8.04325 2.23529 8.65686C2.49827 8.24778 2.87082 7.91176 3.35294 7.64878C3.83506 7.3712 4.39754 7.2324 5.04037 7.2324C5.58093 7.2324 6.07036 7.32737 6.50865 7.51729C6.94694 7.69261 7.31949 7.94828 7.6263 8.28431C7.9331 8.62033 8.16686 9.0221 8.32757 9.48961C8.48827 9.95713 8.56863 10.4758 8.56863 11.0456C8.56863 11.6007 8.47366 12.1121 8.28374 12.5796C8.10842 13.0471 7.85275 13.4489 7.51672 13.7849C7.1807 14.1209 6.76432 14.3912 6.26759 14.5957C5.77086 14.7857 5.21569 14.8806 4.60208 14.8806ZM4.40484 9.11706C3.95194 9.11706 3.55017 9.26316 3.19954 9.55536C2.8489 9.83294 2.59323 10.1763 2.43253 10.5853C2.47636 11.272 2.67359 11.8345 3.02422 12.2728C3.38947 12.7111 3.87889 12.9302 4.4925 12.9302C5.01845 12.9302 5.42753 12.7549 5.71972 12.4043C6.01192 12.039 6.15802 11.5934 6.15802 11.0675C6.15802 10.4685 6.00461 9.99365 5.69781 9.64302C5.391 9.29238 4.96002 9.11706 4.40484 9.11706Z" />
<path d="M26.2782 16.4252C25.8162 17.8952 23.5692 17.3072 24.0732 15.7322L28.8612 0.843167C29.3442 -0.647833 31.5492 0.00316644 31.0662 1.51517L26.2782 16.4252Z" />
<path d="M42.6628 16.0689C41.6758 16.0689 41.0668 15.5439 40.6678 14.5779L36.2788 3.42694C35.8378 2.37694 36.4678 1.66294 37.3918 1.66294C38.1688 1.66294 38.5258 1.99894 38.7988 2.71294L42.7048 12.7929L46.5688 2.69194C46.8418 2.01994 47.2618 1.66294 47.9968 1.66294C48.8998 1.66294 49.4248 2.39794 49.0048 3.42694L44.6368 14.5779C44.2168 15.5859 43.6708 16.0689 42.6628 16.0689Z" />
<path d="M52.3561 16.1109C50.1511 16.1109 48.8281 14.5569 48.8281 12.7299C48.8281 10.4409 51.9571 8.76094 54.6661 10.0629L55.2961 10.3569V9.32794C55.2961 7.92094 54.6031 7.29094 53.2801 7.26994C52.8811 7.26994 52.0621 7.50094 51.1591 8.17294C49.9411 9.03394 48.9121 7.35394 50.0461 6.51394C51.1591 5.65294 52.5871 5.35894 53.3641 5.35894C56.3461 5.35894 57.7741 6.78694 57.7741 9.68494V14.8719C57.7741 15.6069 57.3331 16.0689 56.5771 16.0689C55.7791 16.0689 55.3381 15.6069 55.3381 14.8929V14.6829C54.8971 15.7119 53.8471 16.1109 52.3561 16.1109ZM51.0541 12.7299C51.0541 13.6539 51.7471 14.3259 52.9021 14.3259C54.2671 14.3259 55.2961 13.3179 55.2961 11.8689V11.7639L54.6031 11.4699C52.3771 10.5249 51.0541 11.6589 51.0541 12.7299Z" />
<path d="M63.8303 16.1109C61.1423 16.1109 59.3363 14.0319 59.3363 10.7559C59.3363 7.45894 61.1423 5.42194 63.8303 5.42194C65.3003 5.42194 66.5183 6.07294 67.1273 7.16494V2.98594C67.1273 2.12494 67.6103 1.66294 68.4293 1.66294C69.2693 1.66294 69.7313 2.14594 69.7313 2.98594V14.7249C69.7313 15.5859 69.2693 16.0689 68.4503 16.0689C67.6103 16.0689 67.1483 15.5649 67.1483 14.7249V14.2839C66.5603 15.3969 65.3213 16.1109 63.8303 16.1109ZM64.5653 14.1369C66.1193 14.1369 67.1693 12.9819 67.1693 10.7559C67.1693 8.52994 66.0983 7.39594 64.5653 7.39594C62.9693 7.39594 61.9403 8.55094 61.9403 10.7559C61.9403 12.9819 62.9693 14.1369 64.5653 14.1369Z" />
<path d="M73.1461 16.0479C72.3691 16.0479 71.9071 15.5019 71.9071 14.6409V6.91294C71.9071 5.98894 72.3901 5.48494 73.1461 5.48494C73.9231 5.48494 74.3851 6.00994 74.3851 6.91294V14.6409C74.3851 15.5229 73.9441 16.0479 73.1461 16.0479ZM73.1461 3.97294C72.3901 3.97294 71.7391 3.36394 71.7391 2.56594C71.7391 1.74694 72.4111 1.15894 73.1461 1.15894C73.9021 1.15894 74.5321 1.76794 74.5321 2.56594C74.5321 3.38494 73.9021 3.97294 73.1461 3.97294Z" />
<path d="M80.714 16.0689C80 16.0689 79.496 15.6909 79.16 14.9559L75.821 7.20694C75.422 6.28294 75.821 5.46394 76.955 5.46394C77.564 5.46394 77.921 5.69494 78.236 6.51394L80.777 12.8349L83.381 6.49294C83.696 5.71594 84.053 5.46394 84.746 5.46394C85.649 5.46394 86.048 6.30394 85.67 7.18594L82.247 14.9559C81.932 15.7119 81.449 16.0689 80.714 16.0689Z" />
<path d="M89.764 16.1109C87.559 16.1109 86.236 14.5569 86.236 12.7299C86.236 10.4409 89.365 8.76094 92.074 10.0629L92.704 10.3569V9.32794C92.704 7.92094 92.011 7.29094 90.688 7.26994C90.289 7.26994 89.47 7.50094 88.567 8.17294C87.349 9.03394 86.32 7.35394 87.454 6.51394C88.567 5.65294 89.995 5.35894 90.772 5.35894C93.754 5.35894 95.182 6.78694 95.182 9.68494V14.8719C95.182 15.6069 94.741 16.0689 93.985 16.0689C93.187 16.0689 92.746 15.6069 92.746 14.8929V14.6829C92.305 15.7119 91.255 16.1109 89.764 16.1109ZM88.462 12.7299C88.462 13.6539 89.155 14.3259 90.31 14.3259C91.675 14.3259 92.704 13.3179 92.704 11.8689V11.7639L92.011 11.4699C89.785 10.5249 88.462 11.6589 88.462 12.7299Z" />
<path d="M98.5712 16.0689C97.7312 16.0689 97.2692 15.5649 97.2692 14.7249V6.78694C97.2692 5.92594 97.7522 5.46394 98.5502 5.46394C99.3692 5.46394 99.8102 5.94694 99.8102 6.78694V7.20694C100.44 6.07294 101.553 5.42194 102.981 5.42194C104.493 5.42194 105.522 6.05194 106.005 7.41694C106.656 6.17794 107.937 5.42194 109.449 5.42194C111.78 5.42194 112.914 6.80794 112.914 9.64294V14.7249C112.914 15.5859 112.431 16.0689 111.612 16.0689C110.772 16.0689 110.31 15.5649 110.31 14.7249V9.74794C110.31 8.17294 109.806 7.45894 108.609 7.45894C107.244 7.45894 106.383 8.50894 106.383 10.2099V14.7249C106.383 15.5859 105.921 16.0689 105.102 16.0689C104.262 16.0689 103.779 15.5649 103.779 14.7249V9.74794C103.779 8.17294 103.275 7.45894 102.099 7.45894C100.713 7.45894 99.8732 8.50894 99.8732 10.2099V14.7249C99.8732 15.5859 99.4322 16.0689 98.5712 16.0689Z" />
</svg>
