<svg width="24" height="24" viewBox="0 0 24 24" fill="none" xmlns="http://www.w3.org/2000/svg">
<path d="M22 12C22 17.5228 17.5228 22 12 22C6.47715 22 2 17.5228 2 12C2 6.47715 6.47715 2 12 2C17.5228 2 22 6.47715 22 12Z" stroke="black" stroke-width="2" stroke-linecap="round" stroke-linejoin="round"/>
<path d="M7 10C8.58628 10.7931 10.2632 11.2105 12 11.5M12 11.5C12 13.7527 10.5337 16.2959 9 18M12 11.5C12 13.7527 13.4663 16.2959 15 18M12 11.5C13.7368 11.2105 15.4137 10.7931 17 10" stroke="black" stroke-width="2" stroke-linecap="round" stroke-linejoin="round"/>
<path d="M13 7C13 7.5523 12.5523 8 12 8C11.4477 8 11 7.5523 11 7C11 6.4477 11.4477 6 12 6C12.5523 6 13 6.4477 13 7Z" stroke="black" stroke-width="2" stroke-linecap="round" stroke-linejoin="round"/>
</svg>
