<svg xmlns="http://www.w3.org/2000/svg" width="24" height="24" viewBox="0 0 24 24" fill="none" stroke="currentColor" stroke-width="2" stroke-linecap="round" stroke-linejoin="round">
<path d="M14.5 11a142 142 0 0 1-1.766 1.888c-.532.563-.895.925-1.234 1.037-.93.307-1.448-.396-2-.905"/><path d="M2.5 4.348 5.825 2M21.5 4.348 18.175 2m2.27 10.526a8.4 8.4 0 0 1-2.474 5.955A8.46 8.46 0 0 1 12 20.947a8.46 8.46 0 0 1-5.971-2.466 8.4 8.4 0 0 1-2.473-5.955 8.4 8.4 0 0 1 2.473-5.954A8.46 8.46 0 0 1 12 4.105c2.24 0 4.387.887 5.971 2.467a8.4 8.4 0 0 1 2.473 5.954M22 22l-3.5-3.5M2 22l3.5-3.5"/>
</svg>
