<svg xmlns="http://www.w3.org/2000/svg" width="24" height="24" viewBox="0 0 24 24" fill="none" stroke="currentColor" stroke-width="2" stroke-linecap="round" stroke-linejoin="round">
<path d="M2 8a6 6 0 0 1 6-6h8a6 6 0 0 1 6 6v8a6 6 0 0 1-6 6H8a6 6 0 0 1-6-6z"/><path d="M12 2.5v6.834c0 .213 0 .32.044.375a.2.2 0 0 0 .156.075c.07 0 .154-.067.32-.2L14.3 8.16a.5.5 0 0 1 .147-.097.2.2 0 0 1 .106 0c.04.011.076.04.147.097l1.78 1.424c.166.133.25.2.32.2a.2.2 0 0 0 .156-.075C17 9.654 17 9.547 17 9.334V2.5"/>
</svg>
