<svg width="24" height="24" viewBox="0 0 24 24" fill="none" xmlns="http://www.w3.org/2000/svg">
<path d="M6 4C7.65685 4 9 5.07452 9 6.4V17.6C9 18.9255 7.65685 20 6 20C4.34315 20 3 18.9255 3 17.6V6.4C3 5.07452 4.34315 4 6 4Z" stroke="black" stroke-width="2" stroke-linecap="round" stroke-linejoin="round"/>
<path d="M3 22V2" stroke="black" stroke-width="2" stroke-linecap="round" stroke-linejoin="round"/>
<path d="M21 22V2" stroke="black" stroke-width="2" stroke-linecap="round" stroke-linejoin="round"/>
<path d="M15 8.8C15 7.47452 16.3431 6.4 18 6.4C19.6569 6.4 21 7.47452 21 8.8V15.2C21 16.5255 19.6569 17.6 18 17.6C16.3431 17.6 15 16.5255 15 15.2V8.8Z" stroke="black" stroke-width="2" stroke-linecap="round" stroke-linejoin="round"/>
</svg>
