<svg width="24" height="24" viewBox="0 0 24 24" fill="none" xmlns="http://www.w3.org/2000/svg">
<path d="M4 17C4 15.3431 5.07452 14 6.4 14H17.6C18.9255 14 20 15.3431 20 17M4 17C4 18.6569 5.07452 20 6.4 20H17.6C18.9255 20 20 18.6569 20 17M4 17H2M20 17H22M6.4 7C6.4 8.65685 7.47452 10 8.8 10H15.2C16.5255 10 17.6 8.65685 17.6 7M6.4 7C6.4 5.34315 7.47452 4 8.8 4L15.2 4C16.5255 4 17.6 5.34315 17.6 7M6.4 7H2M17.6 7L22 7" stroke="black" stroke-width="2" stroke-linecap="round" stroke-linejoin="round"/>
</svg>
