<svg width="24" height="24" viewBox="0 0 24 24" fill="none" xmlns="http://www.w3.org/2000/svg">
<path d="M9 4C10.6569 4 12 5.07452 12 6.4V17.6C12 18.9255 10.6569 20 9 20C7.34315 20 6 18.9255 6 17.6V6.4C6 5.07452 7.34315 4 9 4Z" stroke="black" stroke-width="2" stroke-linecap="round" stroke-linejoin="round"/>
<path d="M2 22V2" stroke="black" stroke-width="2" stroke-linecap="round" stroke-linejoin="round"/>
<path d="M16 8.8C16 7.47452 17.3431 6.4 19 6.4C20.6569 6.4 22 7.47452 22 8.8V15.2C22 16.5255 20.6569 17.6 19 17.6C17.3431 17.6 16 16.5255 16 15.2V8.8Z" stroke="black" stroke-width="2" stroke-linecap="round" stroke-linejoin="round"/>
</svg>
