<svg width="24" height="24" viewBox="0 0 24 24" fill="none" xmlns="http://www.w3.org/2000/svg">
<path d="M10 10.5V4.55C10 3.14167 8.65685 2 7 2C5.34315 2 4 3.14167 4 4.55V10.5V16.45C4 17.8583 5.34315 19 7 19C8.65685 19 10 17.8583 10 16.45V10.5Z" stroke="black" stroke-width="2" stroke-linecap="round" stroke-linejoin="round"/>
<path d="M17 7C15.3431 7 14 8.15127 14 9.57143V13V16.4286C14 17.8487 15.3431 19 17 19C18.6569 19 20 17.8487 20 16.4286V13V9.57143C20 8.15127 18.6569 7 17 7Z" stroke="black" stroke-width="2" stroke-linecap="round" stroke-linejoin="round"/>
<path d="M2 22H22" stroke="black" stroke-width="2" stroke-linecap="round" stroke-linejoin="round"/>
</svg>
