<svg width="24" height="24" viewBox="0 0 24 24" fill="none" xmlns="http://www.w3.org/2000/svg">
<path d="M20 7C20 8.65686 18.9255 10 17.6 10L6.4 10C5.07452 10 4 8.65685 4 7C4 5.34315 5.07452 4 6.4 4L17.6 4C18.9255 4 20 5.34315 20 7Z" stroke="black" stroke-width="2" stroke-linecap="round" stroke-linejoin="round"/>
<path d="M15.2 14C16.5255 14 17.6 15.3431 17.6 17C17.6 18.6569 16.5255 20 15.2 20H8.8C7.47452 20 6.4 18.6569 6.4 17C6.4 15.3431 7.47452 14 8.8 14L15.2 14Z" stroke="black" stroke-width="2" stroke-linecap="round" stroke-linejoin="round"/>
<path d="M2 14L22 14" stroke="black" stroke-width="2" stroke-linecap="round" stroke-linejoin="round"/>
<path d="M2 4L22 4" stroke="black" stroke-width="2" stroke-linecap="round" stroke-linejoin="round"/>
</svg>
