<svg width="24" height="24" viewBox="0 0 24 24" fill="none" xmlns="http://www.w3.org/2000/svg">
<path d="M19.45 10C20.8583 10 22 8.65685 22 7C22 5.34315 20.8583 4 19.45 4L7.55 4C6.14167 4 5 5.34315 5 7C5 8.65686 6.14167 10 7.55 10L19.45 10Z" stroke="black" stroke-width="2" stroke-linecap="round" stroke-linejoin="round"/>
<path d="M17 17C17 15.3431 15.8487 14 14.4286 14L7.57143 14C6.15127 14 5 15.3431 5 17C5 18.6569 6.15127 20 7.57143 20L14.4286 20C15.8487 20 17 18.6569 17 17Z" stroke="black" stroke-width="2" stroke-linecap="round" stroke-linejoin="round"/>
<path d="M2 2L2 22" stroke="black" stroke-width="2" stroke-linecap="round" stroke-linejoin="round"/>
</svg>
