<svg width="24" height="24" viewBox="0 0 24 24" fill="none" xmlns="http://www.w3.org/2000/svg">
<path d="M14 19.45C14 20.8583 15.3431 22 17 22C18.6569 22 20 20.8583 20 19.45L20 7.55C20 6.14167 18.6569 5 17 5C15.3431 5 14 6.14167 14 7.55L14 19.45Z" stroke="black" stroke-width="2" stroke-linecap="round" stroke-linejoin="round"/>
<path d="M7 17C8.65686 17 10 15.8487 10 14.4286L10 7.57143C10 6.15127 8.65685 5 7 5C5.34315 5 4 6.15127 4 7.57143L4 14.4286C4 15.8487 5.34315 17 7 17Z" stroke="black" stroke-width="2" stroke-linecap="round" stroke-linejoin="round"/>
<path d="M22 2L2 2" stroke="black" stroke-width="2" stroke-linecap="round" stroke-linejoin="round"/>
</svg>
