<svg width="24" height="24" viewBox="0 0 24 24" fill="none" xmlns="http://www.w3.org/2000/svg">
<path d="M4 15C4 13.3431 5.07452 12 6.4 12L17.6 12C18.9255 12 20 13.3431 20 15C20 16.6569 18.9255 18 17.6 18H6.4C5.07452 18 4 16.6569 4 15Z" stroke="black" stroke-width="2" stroke-linecap="round" stroke-linejoin="round"/>
<path d="M22 22L2 22" stroke="black" stroke-width="2" stroke-linecap="round" stroke-linejoin="round"/>
<path d="M8.79999 8C7.47451 8 6.39999 6.65685 6.39999 5C6.39999 3.34315 7.47451 2 8.79999 2L15.2 2C16.5255 2 17.6 3.34315 17.6 5C17.6 6.65685 16.5255 8 15.2 8H8.79999Z" stroke="black" stroke-width="2" stroke-linecap="round" stroke-linejoin="round"/>
</svg>
