<svg width="24" height="24" viewBox="0 0 24 24" fill="none" xmlns="http://www.w3.org/2000/svg">
<path d="M6.99999 9C3.43814 9 2.30428 6.44882 2.01356 4.99112C1.90555 4.44956 2.46006 4 3.01085 4H6.99999M6.99999 4V8.59873C6.99999 10.3394 8.88748 10.369 9.22883 11.8026C9.63135 13.493 10.0256 17 7.42856 17C5.75196 17 3.99999 18.1958 3.99999 20C3.99999 20.6014 4.58398 21 5.14284 21C9.69022 20.3368 14.3098 20.3368 18.8571 21C19.416 21 20 20.6014 20 20C20 18.1958 18.248 17 16.5714 17C13.9877 17 14.3676 13.5272 14.7626 11.8389C14.8812 11.3318 15.3536 11.0108 15.8701 10.9443C19.2855 10.5045 22 7.51851 22 4C22 3.45533 21.5447 3 21 3H7.99999C7.45532 3 6.99999 3.45533 6.99999 4Z" stroke="black" stroke-width="2" stroke-linecap="round" stroke-linejoin="round"/>
</svg>
