<svg xmlns="http://www.w3.org/2000/svg" width="24" height="24" viewBox="0 0 24 24" fill="none" stroke="currentColor" stroke-width="2" stroke-linecap="round" stroke-linejoin="round">
<path d="M7 9C3.438 9 2.304 6.449 2.014 4.991 1.906 4.45 2.46 4 3.01 4H7m0 0v4.599c0 1.74 1.887 1.77 2.229 3.204.402 1.69.797 5.197-1.8 5.197C5.752 17 4 18.196 4 20c0 .601.584 1 1.143 1a47.5 47.5 0 0 1 13.714 0c.559 0 1.143-.399 1.143-1 0-1.804-1.752-3-3.429-3-2.583 0-2.203-3.473-1.808-5.161.118-.507.59-.828 1.107-.895C19.285 10.504 22 7.52 22 4c0-.545-.455-1-1-1H8c-.545 0-1 .455-1 1"/>
</svg>
