<svg width="24" height="24" viewBox="0 0 24 24" fill="none" xmlns="http://www.w3.org/2000/svg">
<path d="M14.31 8C16.9651 10.8782 18.7801 14.2605 20.05 17.94M9.69 8C13.4881 7.33832 17.3719 7.33832 21.17 8M7.38 12C8.76443 8.4083 10.6861 5.04524 13.12 2.06M9.69 16C6.95371 13.1863 5.11045 9.78598 3.95 6.06M14.3111 16C10.5123 16.6617 6.6277 16.6617 2.82889 16M16.62 12C15.2535 15.6318 13.2548 18.8902 10.88 21.94M22 12C22 13.3132 21.7413 14.6136 21.2388 15.8268C20.7362 17.0401 19.9997 18.1425 19.0711 19.0711C18.1425 19.9997 17.0401 20.7362 15.8268 21.2388C14.6136 21.7413 13.3132 22 12 22C10.6868 22 9.38642 21.7413 8.17316 21.2388C6.95991 20.7362 5.85752 19.9997 4.92893 19.0711C4.00035 18.1425 3.26375 17.0401 2.7612 15.8268C2.25866 14.6136 2 13.3132 2 12C2 9.34784 3.05357 6.8043 4.92893 4.92893C6.8043 3.05357 9.34783 2 12 2C14.6522 2 17.1957 3.05357 19.0711 4.92893C20.9464 6.8043 22 9.34784 22 12Z" stroke="black" stroke-width="2" stroke-linecap="round" stroke-linejoin="round"/>
</svg>
