<svg width="24" height="24" viewBox="0 0 24 24" fill="none" xmlns="http://www.w3.org/2000/svg">
<path d="M20 7.55556V19C20 20.6569 18.6568 22 17 22H15.75M3.99999 7.55556V19C3.99999 20.6569 5.34314 22 6.99999 22H8.24999M4.77778 7.55556H19.2222C20.7563 7.55556 22 6.3119 22 4.77777C22 3.24365 20.7563 2 19.2222 2H4.77778C3.24365 2 2 3.24365 2 4.77778C2 6.3119 3.24365 7.55556 4.77778 7.55556Z" stroke="black" stroke-width="2" stroke-linecap="round" stroke-linejoin="round"/>
<path d="M12 12V22M12 12C14 12 15.6821 14.037 16.5 16M12 12C10 12 8.31792 14.037 7.5 16" stroke="black" stroke-width="2" stroke-linecap="round" stroke-linejoin="round"/>
</svg>
