<svg width="24" height="24" viewBox="0 0 24 24" fill="none" xmlns="http://www.w3.org/2000/svg">
<path d="M17 2H7" stroke="black" stroke-width="2" stroke-linecap="round" stroke-linejoin="round"/>
<path d="M4.51442 13.3935C3.58659 13.3935 3.14752 14.5641 3.83717 15.1991C7.09774 16.7394 9.92581 19.038 12 22C14.0741 19.038 16.9022 16.7394 20.1628 15.1991C20.8525 14.5641 20.4134 13.3935 19.4856 13.3935H16.0495C15.4904 13.3935 15.0372 12.9298 15.0372 12.3577V8.07154C15.0372 6.92746 14.1306 6 13.0124 6H10.9876C9.86939 6 8.96287 6.92746 8.96287 8.07154V12.3577C8.96287 12.9298 8.50961 13.3935 7.95049 13.3935H4.51442Z" stroke="black" stroke-width="2" stroke-linecap="round" stroke-linejoin="round"/>
</svg>
