<svg width="24" height="24" viewBox="0 0 24 24" fill="none" xmlns="http://www.w3.org/2000/svg">
<path d="M2 7L2 17" stroke="black" stroke-width="2" stroke-linecap="round" stroke-linejoin="round"/>
<path d="M13.3935 19.4856C13.3935 20.4134 14.5641 20.8525 15.1991 20.1628C16.7394 16.9023 19.038 14.0742 22 12C19.038 9.92588 16.7394 7.09777 15.1991 3.83717C14.5641 3.14752 13.3935 3.58658 13.3935 4.51442V7.95047C13.3935 8.50959 12.9298 8.96285 12.3577 8.96285H8.07154C6.92746 8.96285 6 9.86936 6 10.9876L6 13.0124C6 14.1306 6.92746 15.0371 8.07154 15.0371H12.3577C12.9298 15.0371 13.3935 15.4904 13.3935 16.0495V19.4856Z" stroke="black" stroke-width="2" stroke-linecap="round" stroke-linejoin="round"/>
</svg>
