<svg width="24" height="24" viewBox="0 0 24 24" fill="none" xmlns="http://www.w3.org/2000/svg">
<path d="M8 2V22M13 14.5C11.3652 15.6443 10.0789 17.2186 9.28323 19.0486L8 22L6.71677 19.0486C5.92112 17.2186 4.63476 15.6443 3 14.5" stroke="black" stroke-width="2" stroke-linecap="round" stroke-linejoin="round"/>
<path d="M20.2849 19.2921L19.0213 14.5071C18.8427 13.831 18.1573 13.831 17.9787 14.5071L16.7151 19.2921L16 22M16.7151 19.2921C17.6663 20.5102 19.3337 20.5102 20.2849 19.2921M20.2849 19.2921L21 22" stroke="black" stroke-width="2" stroke-linecap="round" stroke-linejoin="round"/>
<path d="M16 2H21L20.7435 2.25122C18.6158 4.33555 16.984 7.00116 16 10H21" stroke="black" stroke-width="2" stroke-linecap="round" stroke-linejoin="round"/>
</svg>
