<svg width="24" height="24" viewBox="0 0 24 24" fill="none" xmlns="http://www.w3.org/2000/svg">
<path d="M8 2V22M13 14.5C11.3652 15.6443 10.0789 17.2186 9.28323 19.0486L8 22L6.71677 19.0486C5.92112 17.2186 4.63476 15.6443 3 14.5" stroke="black" stroke-width="2" stroke-linecap="round" stroke-linejoin="round"/>
<path d="M16 7.5V4.5C16 3.11929 17.1193 2 18.5 2C19.8807 2 21 3.11929 21 4.5V7.5C21 8.88071 19.8807 10 18.5 10C17.1193 10 16 8.88071 16 7.5Z" stroke="black" stroke-width="2" stroke-linecap="round" stroke-linejoin="round"/>
<path d="M19.25 22V14L18.654 14.8669C18.1663 15.5762 17.3608 16 16.5 16" stroke="black" stroke-width="2" stroke-linecap="round" stroke-linejoin="round"/>
</svg>
