<svg width="24" height="24" viewBox="0 0 24 24" fill="none" xmlns="http://www.w3.org/2000/svg">
<path d="M13.3935 19.4856C13.3935 20.4134 14.5641 20.8525 15.1991 20.1628L21.4682 13.3545C22.1773 12.5845 22.1773 11.4156 21.4682 10.6456L15.1991 3.83717C14.5641 3.14752 13.3935 3.58658 13.3935 4.51442L13.3935 7.95047C13.3935 8.50959 12.9298 8.96285 12.3577 8.96285L4.07154 8.96285C2.92746 8.96285 2 9.86936 2 10.9876L2 13.0124C2 14.1306 2.92746 15.0371 4.07154 15.0371L12.3577 15.0371C12.9298 15.0371 13.3935 15.4904 13.3935 16.0495L13.3935 19.4856Z" stroke="black" stroke-width="2" stroke-linecap="round" stroke-linejoin="round"/>
</svg>
