<svg width="24" height="24" viewBox="0 0 24 24" fill="none" xmlns="http://www.w3.org/2000/svg">
<path d="M15.7853 8.21463C20.8962 13.3255 23.3428 19.1619 21.2517 21.2529C19.1629 23.3428 13.3243 20.8951 8.21458 15.7854C3.10482 10.6756 0.657153 4.83812 2.74817 2.74711C4.83696 0.657208 10.6745 3.10487 15.7853 8.21463Z" stroke="black" stroke-width="2" stroke-linecap="round" stroke-linejoin="round"/>
<path d="M2.74817 21.2529C0.657152 19.1619 3.10481 13.3255 8.21568 8.21462C13.3254 3.10486 19.1618 0.656088 21.2528 2.7471C23.3439 4.83811 20.8951 10.6756 15.7853 15.7854C10.6756 20.8951 4.83918 23.3439 2.74817 21.2529Z" stroke="black" stroke-width="2" stroke-linecap="round" stroke-linejoin="round"/>
<path d="M13 12C13 12.5523 12.5523 13 12 13C11.4477 13 11 12.5523 11 12C11 11.4477 11.4477 11 12 11C12.5523 11 13 11.4477 13 12Z" stroke="black" stroke-width="2" stroke-linecap="round" stroke-linejoin="round"/>
</svg>
