<svg width="24" height="24" viewBox="0 0 24 24" fill="none" xmlns="http://www.w3.org/2000/svg">
<path d="M16.7134 13.3804C17.9635 12.1303 18.6658 10.4349 18.6658 8.66699C18.6658 6.89912 17.9635 5.20366 16.7134 3.95358C15.4633 2.70351 13.7679 2.00122 12 2.00122C10.2321 2.00122 8.53666 2.70351 7.28659 3.95358C6.03651 5.20366 5.33423 6.89912 5.33423 8.66699C5.33423 10.4349 6.03651 12.1303 7.28659 13.3804C8.53666 14.6305 10.2321 15.3328 12 15.3328C13.7679 15.3328 15.4633 14.6305 16.7134 13.3804Z" stroke="black" stroke-width="2" stroke-linecap="round" stroke-linejoin="round"/>
<path d="M7.2 14L6 20.8002C6 23.6667 10.6637 20.4966 12 20.4966C13.3368 20.4966 18 23.6667 18 20.7991L16.8 14" stroke="black" stroke-width="2" stroke-linecap="round" stroke-linejoin="round"/>
</svg>
