<svg width="24" height="24" viewBox="0 0 24 24" fill="none" xmlns="http://www.w3.org/2000/svg">
<path d="M9.17422 8.63497C11.4047 10.8653 13.0213 12.0921 13.4217 15.2634C13.8708 18.8219 17.9926 16.0547 19.5236 14.5237C21.0547 12.9928 23.8217 8.87169 20.2637 8.42189C16.9868 8.00758 15.9308 6.46948 13.6354 4.17414C12.1306 2.66966 10.7997 2.54875 9.17422 4.17414C7.54882 5.79944 7.66953 7.13039 9.17422 8.63497Z" stroke="black" stroke-width="2" stroke-linecap="round" stroke-linejoin="round"/>
<path d="M12.3571 12.3571L5.44888 20.4082C5.07 20.7872 4.55613 21 4.02031 21C2.90453 21 2 20.0954 2 18.9797C2 18.4439 2.21286 17.93 2.59174 17.5511L9.5 9.5" stroke="black" stroke-width="2" stroke-linecap="round" stroke-linejoin="round"/>
<path d="M12.3571 12.3571L5.44888 20.4082C5.07 20.7872 4.55613 21 4.02031 21C2.90453 21 2 20.0954 2 18.9797C2 18.4439 2.21286 17.93 2.59174 17.5511L9.5 9.5" stroke="black" stroke-width="2" stroke-linecap="round" stroke-linejoin="round"/>
<path d="M17 7.21433C17.6318 6.58251 18.3571 5.99655 18.3571 5.02034C18.3571 3.90457 17.4526 3 16.3368 3C15.2996 3 14.6698 3.83022 14 4.49999" stroke="black" stroke-width="2" stroke-linecap="round" stroke-linejoin="round"/>
</svg>
