<svg width="24" height="24" viewBox="0 0 24 24" fill="none" xmlns="http://www.w3.org/2000/svg">
<path d="M22 12C22 13.3132 21.7413 14.6136 21.2388 15.8268C20.7362 17.0401 19.9997 18.1425 19.0711 19.0711C18.1425 19.9997 17.0401 20.7362 15.8268 21.2388C14.6136 21.7413 13.3132 22 12 22C10.6868 22 9.38642 21.7413 8.17317 21.2388C6.95991 20.7362 5.85752 19.9997 4.92893 19.0711C4.00035 18.1425 3.26375 17.0401 2.7612 15.8268C2.25866 14.6136 2 13.3132 2 12C2 9.34784 3.05357 6.8043 4.92893 4.92893C6.8043 3.05357 9.34783 2 12 2C14.6522 2 17.1957 3.05357 19.0711 4.92893C20.9464 6.8043 22 9.34784 22 12Z" stroke="black" stroke-width="2" stroke-linecap="round" stroke-linejoin="round"/>
<path d="M8.53845 15.8462C9.51922 16.5731 10.7134 17 12 17C13.2865 17 14.4808 16.5731 15.4615 15.8462M12.2884 2C11.8676 1.99999 11.4531 2.10228 11.0806 2.29807C10.7081 2.49385 10.3887 2.77726 10.1501 3.12388C9.9114 3.4705 9.76059 3.86994 9.71061 4.2878C9.66062 4.70566 9.71297 5.1294 9.86313 5.52253C10.0133 5.91566 10.2568 6.26639 10.5726 6.54452C10.8884 6.82265 11.2671 7.01983 11.6761 7.11907C12.0851 7.21832 12.512 7.21667 12.9202 7.11425C13.3284 7.01183 13.7056 6.81172 14.0192 6.53115M9.40383 10.4231C9.15691 10.2038 8.85807 10.0769 8.53845 10.0769C8.21883 10.0769 7.91999 10.2038 7.67307 10.4231M16.3269 10.4231C16.08 10.2038 15.7811 10.0769 15.4615 10.0769C15.1419 10.0769 14.8431 10.2038 14.5961 10.4231" stroke="black" stroke-width="2" stroke-linecap="round" stroke-linejoin="round"/>
</svg>
