<svg width="24" height="24" viewBox="0 0 24 24" fill="none" xmlns="http://www.w3.org/2000/svg">
<path d="M4.32196 15.7203C5.10254 20.0592 7.29753 22 12 22C16.7024 22 18.8974 20.0592 19.678 15.7204C20.3295 12.0993 19.9924 8.34713 18.6667 4.86178M18.6667 4.86178C18.6667 9.43361 5.33333 9.43357 5.33333 4.86178M18.6667 4.86178C18.6667 1.04605 5.33333 1.04609 5.33333 4.86178M5.33333 4.86178C4.00765 8.3471 3.67052 12.0993 4.32196 15.7203M19.8969 10.8909C15.313 14.0404 8.68711 14.0402 4.10315 10.8909M19.678 15.7204C15.187 18.675 8.81305 18.6748 4.32196 15.7203" stroke="black" stroke-width="2" stroke-linecap="round" stroke-linejoin="round"/>
</svg>
