<svg width="24" height="24" viewBox="0 0 24 24" fill="none" xmlns="http://www.w3.org/2000/svg">
<path d="M2.00008 12L3.1354 12.1135C9.02847 12.7028 14.9675 12.6648 20.8525 12L22 11.8813M5.23004 19.3077C8.65557 20.2777 14.1011 20.3288 17.5944 19.3077C20.9299 18.3377 20.8525 14.7778 20.8525 12M17.5944 19.3077L19.471 21.9999M2.00008 12L2.00007 5.37449C2.00007 0.555641 8.11113 1.18008 8.11113 5.45893M2.00008 12C2.00008 14.7778 1.8934 18.3377 5.23004 19.3077M8.11113 5.45893H9.28779M8.11113 5.45893H6.93447M5.23004 19.3077L3.35338 21.9999" stroke="black" stroke-width="2" stroke-linecap="round" stroke-linejoin="round"/>
</svg>
