<svg width="24" height="24" viewBox="0 0 24 24" fill="none" xmlns="http://www.w3.org/2000/svg">
<path d="M15.3409 17.7258H8.65804M15.3409 17.7258C15.3409 23.4247 8.65804 23.4247 8.65804 17.7258M15.3409 17.7258C17.1422 17.7258 23.394 17.9891 20.0145 14.5762C15.3199 10.9862 21 2 11.9995 2C2.99894 2 8.68127 10.9862 3.98558 14.5762C0.606646 17.9877 6.85501 17.7258 8.65804 17.7258" stroke="black" stroke-width="2" stroke-linecap="round" stroke-linejoin="round"/>
<path d="M13 11C13 11.5523 12.5523 12 12 12C11.4477 12 11 11.5523 11 11C11 10.4477 11.4477 10 12 10C12.5523 10 13 10.4477 13 11Z" stroke="black" stroke-width="2" stroke-linecap="round" stroke-linejoin="round"/>
</svg>
