<svg xmlns="http://www.w3.org/2000/svg" width="24" height="24" viewBox="0 0 24 24" fill="none" stroke="currentColor" stroke-width="2" stroke-linecap="round" stroke-linejoin="round">
<path d="M12 18.11V5.991m0 12.117v-6.974m0 6.974c0 5.498 7.955 5.006 7.416-.444 3.16-1.896 3.3-7.626 1.081-10.257.455-6.16-8.483-7.623-8.498-1.416m0 12.117c0 5.5-7.926 5.001-7.416-.444-3.157-1.898-3.3-7.626-1.081-10.257-.455-6.155 8.483-7.628 8.497-1.416m0 0v5.143m5.452 3.743c.546.138 1.782 1.032 1.968 2.775M16.171 7.259c-2.231.275-4.114 2.82-4.172 3.876m0 0c-.057-1.056-1.94-3.6-4.171-3.876m11.53 2.608c.556-.482 1-1.58 1.142-2.458M6.548 14.88c-.547.137-1.782 1.03-1.968 2.774m.06-7.786c-.556-.482-1-1.58-1.141-2.458"/>
</svg>
