<svg width="24" height="24" viewBox="0 0 24 24" fill="none" xmlns="http://www.w3.org/2000/svg">
<path d="M12 2V4M16 2V4M8 2V4M12 20V22M16 20V22M8 20V22M4 12H2M22 12H20M4 16H2M22 16H20M4 8H2M22 8H20M8.8 20H15.2C17.851 20 20 17.851 20 15.2V8.8C20 6.14903 17.851 4 15.2 4H8.8C6.14903 4 4 6.14903 4 8.8V15.2C4 17.851 6.14903 20 8.8 20ZM10.8 15H13.2C14.1941 15 15 14.1941 15 13.2V10.8C15 9.80589 14.1941 9 13.2 9H10.8C9.80589 9 9 9.80589 9 10.8V13.2C9 14.1941 9.80589 15 10.8 15Z" stroke="black" stroke-width="2" stroke-linecap="round" stroke-linejoin="round"/>
</svg>
