<svg xmlns="http://www.w3.org/2000/svg" width="24" height="24" viewBox="0 0 24 24" fill="none" stroke="currentColor" stroke-width="2" stroke-linecap="round" stroke-linejoin="round">
<path d="M2.048 12.486c.094.36.23.547.502.92C4.039 15.45 7.303 19 12 19s7.961-3.55 9.45-5.595c.272-.372.408-.559.502-.92.063-.32.063-.65 0-.971-.094-.36-.23-.547-.502-.92C19.961 8.55 16.697 5 12 5s-7.961 3.55-9.45 5.595c-.272.372-.408.559-.502.92a2.5 2.5 0 0 0 0 .971"/><path d="M12 14a2 2 0 1 0 0-4 2 2 0 0 0 0 4M2 2l20 20"/>
</svg>
