<svg width="24" height="24" viewBox="0 0 24 24" fill="none" xmlns="http://www.w3.org/2000/svg">
<path d="M9.47555 2H7.5C5.84315 2 4.5 3.34315 4.5 5V19C4.5 20.6569 5.84315 22 7.5 22H16.5C18.1569 22 19.5 20.6569 19.5 19V12M9.47555 2C10.8567 2 12 3.11889 12 4.5V7C12 7.66304 12.2634 8.29893 12.7322 8.76777C13.2011 9.23661 13.837 9.5 14.5 9.5H17C17.663 9.5 18.2989 9.76339 18.7678 10.2322C19.2366 10.7011 19.5 11.337 19.5 12M9.47555 2C13.5756 2 19.5 7.95556 19.5 12" stroke="black" stroke-width="2" stroke-linecap="round" stroke-linejoin="round"/>
</svg>
