<svg xmlns="http://www.w3.org/2000/svg" width="24" height="24" viewBox="0 0 24 24" fill="none" stroke="currentColor" stroke-width="2" stroke-linecap="round" stroke-linejoin="round">
<path d="M22 4.4A2.4 2.4 0 0 0 19.6 2h-3.2A2.4 2.4 0 0 0 14 4.4v5.2a2.4 2.4 0 0 0 2.4 2.4h3.2A2.4 2.4 0 0 0 22 9.6zm0 14a2.4 2.4 0 0 0-2.4-2.4h-3.2a2.4 2.4 0 0 0-2.4 2.4v1.2a2.4 2.4 0 0 0 2.4 2.4h3.2a2.4 2.4 0 0 0 2.4-2.4zm-12-14A2.4 2.4 0 0 0 7.6 2H4.4A2.4 2.4 0 0 0 2 4.4v1.2A2.4 2.4 0 0 0 4.4 8h3.2A2.4 2.4 0 0 0 10 5.6zm0 10A2.4 2.4 0 0 0 7.6 12H4.4A2.4 2.4 0 0 0 2 14.4v5.2A2.4 2.4 0 0 0 4.4 22h3.2a2.4 2.4 0 0 0 2.4-2.4z"/>
</svg>
