<svg width="24" height="24" viewBox="0 0 24 24" fill="none" xmlns="http://www.w3.org/2000/svg">
<path d="M12 22C6.55333 22 2 17.4467 2 12C2 6.55333 6.55333 2 12 2C17.0061 2 22 5.69547 22 11C22 15.15 17.9648 15.0108 14.75 16C11.5 17 13.1805 18.6857 13.9929 20.0928C14.8054 21.5 13.0759 22 12 22Z" stroke="black" stroke-width="2" stroke-linecap="round" stroke-linejoin="round"/>
<path d="M6 14C6 14.5 6.5 15.5 7.0006 15.8024" stroke="black" stroke-width="2" stroke-linecap="round" stroke-linejoin="round"/>
<path d="M12.7825 6C12 6 11.5 6 10.75 6.34517" stroke="black" stroke-width="2" stroke-linecap="round" stroke-linejoin="round"/>
<path d="M7.06066 8C6.5 8.5 6 9.5 6 9.76777" stroke="black" stroke-width="2" stroke-linecap="round" stroke-linejoin="round"/>
<path d="M17.6003 9.62504C17.6003 9.62504 17 8.5 16.1675 8.14276" stroke="black" stroke-width="2" stroke-linecap="round" stroke-linejoin="round"/>
</svg>
