<svg xmlns="http://www.w3.org/2000/svg" width="24" height="24" viewBox="0 0 24 24" fill="none" stroke="currentColor" stroke-width="2" stroke-linecap="round" stroke-linejoin="round">
<path d="M8.622 20.655a2.88 2.88 0 0 1-2.038.845H2.5v-4.058c0-.764.304-1.497.844-2.038m5.278 5.25L19.15 10.123M8.622 20.655a10.97 10.97 0 0 0-5.278-5.25m0 0 10.539-10.55m5.267 5.267 1.509-1.507a2.885 2.885 0 0 0 0-4.08l-1.189-1.19a2.885 2.885 0 0 0-4.082.002l-1.505 1.507m5.267 5.268a10.98 10.98 0 0 0-5.267-5.268"/>
</svg>
