<svg xmlns="http://www.w3.org/2000/svg" width="24" height="24" viewBox="0 0 24 24" fill="none" stroke="currentColor" stroke-width="2" stroke-linecap="round" stroke-linejoin="round">
<path d="m14.93 8.888-.002-.002A27 27 0 0 0 13.42 7.73a26 26 0 0 0-1.371-.89h-.002C10.17 5.7 9.233 5.13 8.392 5.76c-.84.632-.918 1.952-1.071 4.589v.011a38 38 0 0 0-.07 2.139q.005 1.07.07 2.139v.005c.153 2.642.23 3.963 1.071 4.595.841.63 1.779.06 3.655-1.08h.002c.486-.297.956-.598 1.372-.89a27 27 0 0 0 1.507-1.155c1.882-1.534 2.822-2.302 2.822-3.614s-.94-2.078-2.82-3.612"/>
</svg>
