<svg width="24" height="24" viewBox="0 0 24 24" fill="none" xmlns="http://www.w3.org/2000/svg">
<path d="M14.9307 8.88815L14.9278 8.88573C14.4391 8.48307 13.9364 8.09783 13.4205 7.73074C13.0051 7.43908 12.535 7.13809 12.0485 6.84176L12.0467 6.8407C10.1708 5.70042 9.2331 5.13048 8.39221 5.76144C7.55114 6.39283 7.47429 7.71281 7.32075 10.3497L7.32006 10.3615C7.27689 11.1094 7.25006 11.8432 7.25006 12.5C7.25397 13.2133 7.2777 13.9264 7.32123 14.6385L7.32152 14.6435C7.47415 17.2861 7.55043 18.6066 8.39221 19.2386C9.2331 19.8695 10.1708 19.2996 12.0467 18.1593L12.0485 18.1582C12.535 17.8619 13.0051 17.5609 13.4205 17.2693C13.9364 16.9022 14.4391 16.5169 14.9278 16.1143C16.8096 14.5801 17.7499 13.8125 17.7499 12.5C17.7499 11.1882 16.8106 10.4218 14.9307 8.88815Z" stroke="black" stroke-width="2" stroke-linecap="round" stroke-linejoin="round"/>
</svg>
