<svg xmlns="http://www.w3.org/2000/svg" width="24" height="24" viewBox="0 0 24 24" fill="none" stroke="currentColor" stroke-width="2" stroke-linecap="round" stroke-linejoin="round">
<path d="m15.03 8.13-.004-.002a29 29 0 0 0-1.615-1.238 27 27 0 0 0-1.47-.952l-.002-.002C9.93 4.715 8.925 4.104 8.024 4.78S7.04 6.87 6.876 9.696l-.001.013A41 41 0 0 0 6.8 12q.006 1.146.076 2.291v.006c.164 2.831.246 4.246 1.148 4.923.9.676 1.905.065 3.915-1.156l.002-.002c.521-.317 1.025-.64 1.47-.952a29 29 0 0 0 1.615-1.238C17.042 14.23 18.05 13.406 18.05 12s-1.007-2.227-3.02-3.87"/>
</svg>
