<svg xmlns="http://www.w3.org/2000/svg" width="24" height="24" viewBox="0 0 24 24" fill="none" stroke="currentColor" stroke-width="2" stroke-linecap="round" stroke-linejoin="round">
<path d="m6 18-3 3m0-5-1 1m1-1-1 1m6 4-1 1m-.089-7.928 3.018 3.018M6.91 14.072s1.782-4.454 4.318-7.545M6.91 14.072c-6.562-1.641-.666-7.545 4.318-7.545m-1.3 10.563s4.454-1.782 7.544-4.319M9.93 17.09c1.64 6.56 7.544.666 7.544-4.319M11.23 6.527C13.794 3.4 18.023 2 22 2c0 3.977-1.4 8.205-4.527 10.771m-1.137-5.223.889-.89"/>
</svg>
