<svg xmlns="http://www.w3.org/2000/svg" width="24" height="24" viewBox="0 0 24 24" fill="none" stroke="currentColor" stroke-width="2" stroke-linecap="round" stroke-linejoin="round">
<path d="M18.667 6.6a7.6 7.6 0 0 1-2.167.1m2.167 10.7a7.6 7.6 0 0 1-2.167.1M22 4.44C22 3.644 21.502 3 20.889 3A79.5 79.5 0 0 1 3.11 3C2.498 3 2 3.644 2 4.44v4.32c0 .796.498 1.44 1.111 1.44 5.907.665 11.87.665 17.778 0 .613 0 1.111-.644 1.111-1.44zm0 10.8c0-.796-.498-1.44-1.111-1.44a79.5 79.5 0 0 1-17.778 0C2.498 13.8 2 14.444 2 15.24v4.32c0 .796.498 1.44 1.111 1.44 5.907.665 11.87.665 17.778 0 .613 0 1.111-.644 1.111-1.44z"/>
</svg>
