<svg width="24" height="24" viewBox="0 0 24 24" fill="none" xmlns="http://www.w3.org/2000/svg">
<path d="M18.6667 6.6C17.936 6.73802 17.2403 6.77013 16.5 6.7M18.6667 17.4C17.936 17.538 17.2403 17.5701 16.5 17.5M22 4.44C22 3.6444 21.5022 3 20.8889 3C14.9816 3.66457 9.0184 3.66457 3.11111 3C2.49778 3 2 3.6444 2 4.44V8.76C2 9.5556 2.49778 10.2 3.11111 10.2C9.0184 10.8646 14.9816 10.8646 20.8889 10.2C21.5022 10.2 22 9.5556 22 8.76V4.44ZM22 15.24C22 14.4444 21.5022 13.8 20.8889 13.8C14.9816 14.4646 9.0184 14.4646 3.11111 13.8C2.49778 13.8 2 14.4444 2 15.24V19.56C2 20.3556 2.49778 21 3.11111 21C9.0184 21.6646 14.9816 21.6646 20.8889 21C21.5022 21 22 20.3556 22 19.56V15.24Z" stroke="black" stroke-width="2" stroke-linecap="round" stroke-linejoin="round"/>
</svg>
