<svg xmlns="http://www.w3.org/2000/svg" width="24" height="24" viewBox="0 0 24 24" fill="none" stroke="currentColor" stroke-width="2" stroke-linecap="round" stroke-linejoin="round">
<path d="M13.945 10.056a2.75 2.75 0 1 1-3.889 3.888 2.75 2.75 0 0 1 3.889-3.889"/><path d="M9.75 4.1c0 1.595-2.027 2.816-3.458 1.991-2.555-1.359-4.496 2.384-2.239 3.885 1.377.793 1.378 3.2 0 3.994-2.433 1.457-.212 5.178 2.239 3.873 1.551-.893 3.46.57 3.46 2.174 0 2.678 4.477 2.61 4.477 0 0-1.635 1.879-3.084 3.458-2.174 2.52 1.341 4.69-2.569 2.239-3.873-1.38-.794-1.378-3.211 0-4.004 2.433-1.457.214-5.178-2.239-3.875-1.398.807-3.457-.403-3.458-1.99 0-2.845-4.478-2.756-4.478 0"/>
</svg>
