<svg xmlns="http://www.w3.org/2000/svg" width="24" height="24" viewBox="0 0 24 24" fill="none" stroke="currentColor" stroke-width="2" stroke-linecap="round" stroke-linejoin="round">
<path d="M7.629 8.662a1.22 1.22 0 0 0 1.136-.826 30.3 30.3 0 0 1 2.286-5.295c.409-.73 1.499-.712 1.898 0a30 30 0 0 1 2.285 5.295c.164.476.634.818 1.137.826a32 32 0 0 1 4.741.473c.861.15 1.184 1.132.572 1.73a35 35 0 0 1-3.789 3.216 1.14 1.14 0 0 0-.42 1.28 30.3 30.3 0 0 1 1.267 5.48c.111.839-.788 1.431-1.567 1.031a31.7 31.7 0 0 1-4.422-2.749 1.3 1.3 0 0 0-1.507 0 32 32 0 0 1-4.422 2.749c-.78.4-1.678-.192-1.566-1.032.25-1.862.674-3.696 1.266-5.478a1.14 1.14 0 0 0-.42-1.281 34.5 34.5 0 0 1-3.789-3.216c-.61-.598-.287-1.58.573-1.73a33 33 0 0 1 4.74-.473"/>
</svg>
