<svg width="24" height="24" viewBox="0 0 24 24" fill="none" xmlns="http://www.w3.org/2000/svg">
<path d="M14.4749 8.97487C15.1313 8.3185 15.5 7.42826 15.5 6.5C15.5 5.57174 15.1313 4.6815 14.4749 4.02513C13.8185 3.36875 12.9283 3 12 3C11.0717 3 10.1815 3.36875 9.52513 4.02513C8.86875 4.6815 8.5 5.57174 8.5 6.5C8.5 7.42826 8.86875 8.3185 9.52513 8.97487C10.1815 9.63125 11.0717 10 12 10C12.9283 10 13.8185 9.63125 14.4749 8.97487Z" stroke="black" stroke-width="2" stroke-linecap="round" stroke-linejoin="round"/>
<path d="M20 21C19.4933 10.3333 4.50667 10.3333 4 21" stroke="black" stroke-width="2" stroke-linecap="round" stroke-linejoin="round"/>
</svg>
