<svg width="24" height="24" viewBox="0 0 24 24" fill="none" xmlns="http://www.w3.org/2000/svg">
<path d="M22 21C22 18.5729 20.1444 15.1146 17.5556 14.3493M15.3333 21C15.3333 17.9214 12.3489 14.0323 8.66667 14.0323C4.98444 14.0323 2 17.9214 2 21M15.3333 9.96774C16.2174 9.96774 17.0652 9.60069 17.6904 8.94734C18.3155 8.29399 18.6667 7.40785 18.6667 6.48387C18.6667 5.55989 18.3155 4.67375 17.6904 4.0204C17.0652 3.36705 16.2174 3 15.3333 3M11.97 6.48387C11.97 8.31669 10.4483 9.96774 8.485 9.96774C6.52168 9.96774 5 8.31669 5 6.48387C5 4.65105 6.52168 3 8.485 3C10.4483 3 11.97 4.65105 11.97 6.48387Z" stroke="black" stroke-width="2" stroke-linecap="round" stroke-linejoin="round"/>
</svg>
