<svg xmlns="http://www.w3.org/2000/svg" width="24" height="24" viewBox="0 0 24 24" fill="none" stroke="currentColor" stroke-width="2" stroke-linecap="round" stroke-linejoin="round">
<path d="M22 21c0-2.427-1.856-5.885-4.444-6.65M15.333 21c0-3.079-2.984-6.968-6.666-6.968S2 17.922 2 21M15.333 9.968c.884 0 1.732-.367 2.357-1.02.625-.654.977-1.54.977-2.464s-.352-1.81-.977-2.464A3.26 3.26 0 0 0 15.333 3M11.97 6.484c0 1.833-1.522 3.484-3.485 3.484S5 8.317 5 6.484 6.522 3 8.485 3s3.485 1.651 3.485 3.484"/>
</svg>
