<svg xmlns="http://www.w3.org/2000/svg" width="24" height="24" viewBox="0 0 24 24" fill="none" stroke="currentColor" stroke-width="2" stroke-linecap="round" stroke-linejoin="round">
<path d="M9.677 6.521a1.06 1.06 0 0 1 0 1.472L7.995 9.675a1.06 1.06 0 0 1-1.472 0l-2.83-2.828c-.549-.548-1.472-.37-1.605.396-.528 3.067 1.365 6.177 4.358 7.1 1.72.53 4.179-.562 5.548.805l6.179 6.18c.844.879 2.317.902 3.187.032.861-.861.856-2.334-.032-3.187l-6.18-6.18c-1.366-1.368-.275-3.827-.806-5.547-.924-2.992-4.032-4.885-7.099-4.358-.765.133-.944 1.056-.395 1.605z"/>
</svg>
